<?xml version="1.0" encoding="UTF-8" standalone="no"?>
<svg
   width="362"
   height="362"
   viewBox="0 0 362 362"
   version="1.1"
   id="svg1"
   sodipodi:docname="trace (1) with theme selector.svg"
   inkscape:version="1.3 (0e150ed, 2023-07-21)"
   xmlns:inkscape="http://www.inkscape.org/namespaces/inkscape"
   xmlns:sodipodi="http://sodipodi.sourceforge.net/DTD/sodipodi-0.dtd"
   xmlns="http://www.w3.org/2000/svg"
   xmlns:svg="http://www.w3.org/2000/svg">
  <defs
     id="defs1" />
  <sodipodi:namedview
     id="namedview1"
     pagecolor="#ffffff"
     bordercolor="#000000"
     borderopacity="0.25"
     inkscape:showpageshadow="2"
     inkscape:pageopacity="0.0"
     inkscape:pagecheckerboard="0"
     inkscape:deskcolor="#d1d1d1"
     inkscape:zoom="0.6519337"
     inkscape:cx="180.23305"
     inkscape:cy="181"
     inkscape:window-width="1504"
     inkscape:window-height="939"
     inkscape:window-x="0"
     inkscape:window-y="25"
     inkscape:window-maximized="0"
     inkscape:current-layer="svg1" />
  <style
     id="style1">&#10;    svg {&#10;      background-color:rgba(0, 0, 0, 0.0)&#10;    }&#10;    path {&#10;      fill: black;&#10;    }&#10;    @media (prefers-color-scheme: dark)  {&#10;      svg {&#10;        background-color:rgba(0, 0, 0, 0.0)&#10;      }&#10;      path {&#10;        fill: white;&#10;      }&#10;    }&#10;  </style>
  <path
     d="m 150.95575,13.393596 c -10.0739,0.543621 -13.23719,2.403024 -14.50167,8.526206 -0.4541,2.193419 -1.5565,3.987911 -2.45212,3.987911 -2.75949,0 -13.81145,5.806746 -13.81145,7.255052 0,0.751875 1.41398,3.37938 3.14373,5.837848 3.80182,5.407819 9.55974,6.810147 18.7562,4.568045 5.19484,-1.265746 6.715,-1.229234 7.63995,0.183911 1.38883,2.117691 1.40561,1.107528 -0.30878,18.66705 -0.76288,7.809491 -1.94771,20.284389 -2.63375,27.722001 -0.68602,7.437594 -2.22994,20.21676 -3.43155,28.39814 -1.20021,8.18136 -2.81399,19.39188 -3.58385,24.91193 -2.1098,15.10241 -4.90002,19.12953 -25.25743,36.42942 -15.008867,12.75482 -18.077147,15.99898 -18.077147,19.11196 0,2.6586 -1.626356,5.17251 -5.588852,8.63709 -7.145348,6.24759 -7.431776,10.78859 -1.047912,16.63725 5.1124,4.683 9.589074,7.1888 12.843181,7.1888 1.21,0 6.92599,-4.60456 12.70347,-10.23145 7.80903,-7.608 11.29926,-10.12191 13.61025,-9.80413 3.01798,0.41516 3.13676,1.05615 4.07288,22.06402 1.45869,32.7701 3.62158,69.64578 4.45153,75.89473 0.40799,3.06699 1.38742,10.5668 2.17685,16.6643 1.9561,15.0997 3.68864,20.71035 7.41222,24.00861 3.88984,3.44699 8.78987,4.99131 11.20146,3.53082 2.07206,-1.25492 45.69588,-44.69462 52.04481,-51.82526 8.66272,-9.72975 31.81175,-41.73446 38.13275,-52.72183 1.92536,-3.34694 3.87726,-6.3896 4.33696,-6.76147 1.51597,-1.22517 8.61382,-14.00435 14.27112,-25.69357 3.0599,-6.32196 6.21622,-12.63447 7.01402,-14.02868 4.0603,-7.09954 6.28746,-17.47569 5.07747,-23.65025 -0.67625,-3.44835 -1.57325,-8.21383 -1.99382,-10.58845 -1.09821,-6.20026 -14.04619,-19.53387 -23.12668,-23.81253 -15.18631,-7.15768 -33.25787,-7.68913 -68.56546,-2.01627 -7.35911,1.18326 -9.85873,1.15216 -11.17771,-0.13792 -1.84571,-1.80127 -0.88863,-2.77356 20.7095,-21.04845 20.82826,-17.62172 37.87148,-35.931757 45.4318,-48.805582 11.21822,-19.101136 12.79568,-24.617138 9.04696,-31.632833 -2.27188,-4.250256 -13.44958,-12.688563 -18.9043,-14.270746 -1.92116,-0.557145 -4.12178,-1.459124 -4.89024,-2.004098 -0.76848,-0.544974 -2.65471,-1.342827 -4.19165,-1.771504 -1.53694,-0.430028 -6.25253,-1.75257 -10.47911,-2.939884 -12.91444,-3.628202 -36.46726,-7.503873 -43.93257,-7.228005 -3.88566,0.143343 -11.13999,0.480064 -16.12106,0.747818 m 29.69918,19.696145 c -10.47492,2.305659 -12.26335,4.47068 -10.44418,12.639881 0.80061,3.601155 1.38605,8.069131 1.29801,9.928533 -0.0866,1.859402 -0.0377,12.984715 0.11039,24.721264 0.22215,17.632537 0.63573,21.478461 2.38085,22.126201 2.97606,1.10483 18.92666,-12.785917 26.39894,-22.990316 7.66792,-10.468098 18.99372,-32.970249 18.99372,-37.733026 0,-4.366553 -3.52376,-6.496414 -13.27352,-8.024505 -13.62562,-2.13527 -18.24901,-2.255625 -25.46421,-0.668032 M 222.8857,160.99228 c -9.99007,2.01492 -21.3075,5.05352 -25.14984,6.75336 -3.84233,1.69847 -9.54297,4.25431 -12.66714,5.67827 -3.12416,1.42396 -6.2679,2.59099 -6.98606,2.59505 -0.71818,0.004 -3.00262,1.37257 -5.07608,3.04266 l -3.77248,3.0359 -1.14432,42.59722 c -1.30919,48.6636 -0.56866,78.61284 1.96449,79.42286 1.85689,0.595 4.10361,-1.40908 12.52043,-11.16994 15.7382,-18.25189 26.35005,-32.82691 45.26134,-62.1676 3.3561,-5.20633 6.48865,-9.77032 6.9609,-10.14219 1.8583,-1.46454 15.37635,-29.57736 18.2071,-37.86421 2.2062,-6.45719 2.78604,-10.58439 2.18524,-15.55137 -1.38744,-11.48095 -3.87308,-11.96102 -32.30358,-6.23001"
     stroke="none"
     fill="#3b3b3b"
     fill-rule="evenodd"
     id="path1"
     style="stroke-width:1.37456" />
</svg>
