<?xml version="1.0" standalone="no"?>
<!DOCTYPE svg PUBLIC "-//W3C//DTD SVG 20010904//EN"
 "http://www.w3.org/TR/2001/REC-SVG-20010904/DTD/svg10.dtd">
<svg version="1.0" xmlns="http://www.w3.org/2000/svg"
 width="700.000000pt" height="700.000000pt" viewBox="0 0 700.000000 700.000000"
 preserveAspectRatio="xMidYMid meet">
<metadata>
Created by potrace 1.14, written by Peter Selinger 2001-2017
</metadata>
<g transform="translate(0.000000,700.000000) scale(0.100000,-0.100000)"
fill="#000000" stroke="none">
<path d="M3177 6754 c-1 -1 -70 -5 -152 -8 -181 -8 -209 -11 -270 -32 -59 -20
-90 -54 -112 -124 -21 -70 -34 -84 -86 -100 -100 -30 -227 -108 -227 -139 0
-10 18 -45 39 -78 38 -59 82 -99 131 -120 34 -14 159 -17 207 -4 168 44 207
30 205 -74 0 -32 -13 -195 -17 -213 -1 -9 -6 -55 -10 -102 -7 -88 -10 -130
-19 -215 -6 -55 -13 -126 -21 -225 -3 -36 -7 -81 -10 -100 -2 -19 -7 -62 -11
-95 -9 -92 -11 -106 -18 -160 -4 -27 -9 -68 -11 -90 -8 -63 -15 -118 -20 -145
-2 -14 -7 -45 -10 -70 -3 -25 -8 -56 -10 -70 -3 -14 -7 -45 -10 -70 -3 -25 -7
-56 -10 -70 -3 -14 -7 -42 -10 -62 -2 -21 -7 -53 -10 -70 -3 -18 -7 -49 -9
-68 -27 -223 -79 -338 -214 -475 -90 -92 -127 -125 -402 -360 -80 -69 -193
-182 -206 -206 -7 -15 -16 -40 -19 -57 -10 -60 -26 -84 -104 -163 -143 -143
-147 -205 -24 -323 98 -95 211 -153 264 -134 14 5 35 17 45 26 11 9 37 32 59
51 22 19 85 76 141 128 150 140 200 175 243 171 62 -5 65 -22 86 -478 3 -69 8
-163 10 -210 3 -47 7 -134 10 -195 2 -60 7 -144 10 -185 2 -41 7 -129 10 -195
3 -66 8 -145 10 -175 3 -30 7 -93 10 -140 10 -168 16 -246 20 -285 5 -42 32
-249 40 -300 2 -16 7 -53 10 -81 3 -28 7 -59 9 -70 2 -10 11 -59 21 -108 20
-107 44 -175 81 -223 50 -66 165 -122 221 -108 30 7 98 72 547 520 373 373
493 496 541 559 17 22 42 53 56 70 26 32 161 210 260 346 103 140 277 394 352
517 42 67 91 143 111 170 54 75 97 155 272 501 240 474 257 544 199 822 -3 14
-8 41 -11 60 -17 107 -136 257 -315 397 -111 88 -246 145 -424 179 -130 25
-564 24 -690 -1 -11 -2 -42 -7 -70 -10 -154 -20 -193 -25 -248 -36 -153 -29
-257 -21 -257 21 0 26 73 97 265 260 100 84 143 122 174 150 9 8 32 28 51 44
117 97 392 364 508 494 95 106 198 237 248 315 67 105 73 113 106 176 17 31
41 74 53 96 42 78 85 193 91 247 11 90 -15 149 -100 233 -86 85 -194 158 -290
197 -39 16 -91 38 -116 50 -64 29 -366 114 -479 133 -19 3 -37 7 -40 9 -3 2
-24 7 -45 10 -21 4 -89 15 -150 26 -61 10 -133 21 -161 25 -27 3 -68 8 -90 11
-42 6 -203 12 -208 8z m678 -387 c11 -3 43 -8 70 -11 231 -29 315 -74 315
-167 0 -84 -170 -431 -328 -669 -138 -208 -454 -500 -541 -500 -42 0 -50 91
-56 665 -2 182 -6 344 -10 360 -13 62 -16 82 -21 140 -5 52 -3 64 15 87 54 68
212 108 406 103 72 -2 139 -5 150 -8z m1008 -2435 c79 -45 97 -254 39 -438
-26 -82 -227 -529 -274 -609 -6 -11 -25 -45 -41 -75 -16 -30 -42 -71 -57 -90
-15 -19 -128 -188 -252 -375 -252 -380 -426 -623 -579 -810 -252 -305 -358
-415 -400 -415 -31 0 -37 39 -54 325 -5 87 -6 781 -1 960 2 61 7 245 11 410 4
165 9 334 10 375 2 41 3 123 4 181 l1 106 61 48 c35 27 95 61 142 80 45 17 98
39 117 47 237 105 301 130 395 156 93 25 263 67 315 77 410 79 497 86 563 47z"/>
</g>
</svg>
